<?xml version="1.0" encoding="UTF-8"?>
<svg version="1.1" xmlns="http://www.w3.org/2000/svg" width="512" height="512">
<path d="M0 0 C10.37741047 1.49822487 20.6546608 2.1234622 31.12646484 2.4515686 C77.31211795 3.94086696 121.46725052 11.09058688 165.0546875 26.6953125 C168.40919053 27.7176821 171.75358381 28.27449076 175.2109375 28.85546875 C183.06347829 30.32895636 188.58429142 32.53671143 193.578125 38.890625 C196.7509988 42.65868955 200.26508803 45.11016655 204.3984375 47.73046875 C229.1479309 64.15508073 248.07137404 88.33377076 254.8359375 117.54296875 C258.44489325 136.48488904 258.31656135 156.0527943 250.95654297 174.03930664 C249.38610518 177.88093729 247.96486089 181.37257741 247.8359375 185.54296875 C249.27782659 188.58896352 249.27782659 188.58896352 251.4609375 191.54296875 C262.96185568 208.90739568 264.66735942 228.5221282 260.8359375 248.54296875 C258.6613044 257.67402485 254.35181534 265.59970867 249.859375 273.7578125 C247.49361985 278.0016133 247.49361985 278.0016133 245.8359375 282.54296875 C246.56942826 284.47628736 246.56942826 284.47628736 248.0234375 286.16796875 C256.45627108 298.52999727 255.76716952 315.34256788 253.36108398 329.53833008 C249.51783641 349.50090837 238.20806928 365.69634335 224.8359375 380.54296875 C225.25746094 381.08566406 225.67898438 381.62835938 226.11328125 382.1875 C226.66113281 382.90292969 227.20898438 383.61835938 227.7734375 384.35546875 C228.59134766 385.41701172 228.59134766 385.41701172 229.42578125 386.5 C232.94465734 391.59798392 232.41387334 397.61576628 231.8359375 403.54296875 C225.88736268 428.05999208 206.54766354 448.21052467 185.8359375 461.54296875 C147.18208359 484.98126919 90.16824799 491.91642721 46.5859375 481.35546875 C29.05606803 476.83278629 8.51571833 468.44843236 -1.9453125 452.89453125 C-3.1640625 450.54296875 -3.1640625 450.54296875 -3.1640625 448.54296875 C-3.74969971 448.50333008 -4.33533691 448.46369141 -4.9387207 448.42285156 C-73.58553403 443.61949862 -146.38060804 426.03088605 -193.7265625 372.5390625 C-208.86219133 353.93485206 -219.52178457 333.07501355 -217.1640625 308.54296875 C-215.41172019 296.29499061 -211.77990981 283.86156986 -206.8515625 272.5234375 C-205.92515919 268.50726862 -206.97168972 266.76174717 -208.7890625 263.10546875 C-209.36349249 261.85201697 -209.93103851 260.59539095 -210.4921875 259.3359375 C-210.77642578 258.69962402 -211.06066406 258.06331055 -211.35351562 257.40771484 C-219.46820782 238.73903443 -218.87935176 214.54104621 -211.96435547 195.54150391 C-209.24237663 188.7440302 -206.00325268 182.41763891 -200.9140625 177.10546875 C-198.7874137 173.73029243 -198.7874137 173.73029243 -199.8671875 170.57421875 C-200.76628793 168.16939592 -201.70543605 165.77931338 -202.67578125 163.40234375 C-210.78880393 143.26037188 -208.94988583 117.50818119 -200.66796875 97.73046875 C-189.28812732 73.61111653 -167.33058903 50.86483958 -144.1640625 37.54296875 C-143.08125 36.91092529 -143.08125 36.91092529 -141.9765625 36.26611328 C-122.69120423 25.16629984 -101.57494266 17.87188895 -80.03515625 12.49609375 C-72.61441468 10.6390056 -66.08169958 8.24538017 -59.19140625 4.9296875 C-41.44538 -3.19913743 -18.9022105 -2.89615991 0 0 Z " fill="#FBE8C3" transform="translate(233.1640625,17.45703125)"/>
<path d="M0 0 C10.37741047 1.49822487 20.6546608 2.1234622 31.12646484 2.4515686 C77.31211795 3.94086696 121.46725052 11.09058688 165.0546875 26.6953125 C168.40919053 27.7176821 171.75358381 28.27449076 175.2109375 28.85546875 C183.06347829 30.32895636 188.58429142 32.53671143 193.578125 38.890625 C196.75086403 42.65852951 200.26483539 45.11074307 204.3984375 47.73046875 C223.64165313 60.47398123 239.92185886 78.39211282 245.42138672 101.39038086 C249.27414929 121.39615684 241.48025845 141.01272727 230.859375 157.63671875 C226.34481235 164.03984347 221.21074339 169.85367954 215.8359375 175.54296875 C214.90007812 176.55810547 214.90007812 176.55810547 213.9453125 177.59375 C202.00078995 190.11542385 186.36650979 200.6067695 170.44140625 207.30859375 C154.61744959 213.88091392 154.61744959 213.88091392 145.34130859 227.58056641 C144.78611951 228.96585016 144.23430577 230.35249338 143.68652344 231.74072266 C141.53027632 236.30944144 137.25362988 239.33412256 132.8359375 241.54296875 C122.15901849 242.50983076 112.43242697 241.4949388 103.19628906 235.47412109 C98.61012003 232.51173195 95.01317157 232.13276522 89.5859375 232.66796875 C88.7707666 232.72782959 87.9555957 232.78769043 87.11572266 232.84936523 C84.35331457 233.05671244 81.59515751 233.29692663 78.8359375 233.54296875 C58.76922317 235.29774027 38.96057924 235.88456585 18.8359375 235.54296875 C17.85463867 235.5289502 16.87333984 235.51493164 15.86230469 235.50048828 C-6.93392864 235.08963086 -30.44011018 232.2260425 -52.65869141 227.11572266 C-55.45106668 226.47735661 -58.250666 225.87690673 -61.05078125 225.2734375 C-89.6047597 218.95169661 -118.20758285 208.65473993 -142.1640625 191.54296875 C-143.23398438 190.78757813 -144.30390625 190.0321875 -145.40625 189.25390625 C-167.66391258 173.09195192 -183.72690857 151.4553637 -190.1640625 124.54296875 C-190.42558105 123.61713989 -190.42558105 123.61713989 -190.69238281 122.67260742 C-195.17660439 102.42630057 -188.16401854 84.18995604 -177.76953125 67.2734375 C-155.96354555 35.98085984 -115.45945833 21.33711889 -80.03515625 12.49609375 C-72.61441468 10.6390056 -66.08169958 8.24538017 -59.19140625 4.9296875 C-41.44538 -3.19913743 -18.9022105 -2.89615991 0 0 Z " fill="#CF701E" transform="translate(233.1640625,17.45703125)"/>
<path d="M0 0 C2.76504158 2.45964893 4.29757329 5.14002377 6.0625 8.375 C29.29240393 48.71144406 72.90079092 69.05307403 116.234375 80.71875 C128.81198939 83.91506768 141.5396897 85.99085925 154.375 87.8125 C155.47302444 87.97075256 155.47302444 87.97075256 156.5932312 88.13220215 C177.10847285 91.04593017 197.68349881 91.2346056 218.375 91.25 C219.5710083 91.25167175 220.7670166 91.25334351 221.99926758 91.25506592 C252.82810927 91.25763174 283.80934478 89.78352173 314 83.125 C315.824104 82.72800903 315.824104 82.72800903 317.68505859 82.32299805 C326.19339129 80.45052761 334.63575284 78.44539446 343 76 C343.74878418 75.78400146 344.49756836 75.56800293 345.26904297 75.34545898 C372.06532587 67.49406997 399.59377344 55.52183538 419.95703125 35.9375 C422 34 422 34 424.48828125 32.06640625 C431.69809085 26.13485217 436.87903714 17.98224218 441.58984375 10.01953125 C442.05519531 9.35308594 442.52054687 8.68664062 443 8 C443.66 8 444.32 8 445 8 C458.20248969 26.51979889 463.20288729 47.01044216 459.67578125 69.46875 C457.6549572 80.02843173 453.16081907 88.88555076 448.0234375 98.21484375 C445.65768235 102.45864455 445.65768235 102.45864455 444 107 C444.73349076 108.93331861 444.73349076 108.93331861 446.1875 110.625 C454.62033358 122.98702852 453.93123202 139.79959913 451.52514648 153.99536133 C447.68189891 173.95793962 436.37213178 190.1533746 423 205 C423.42152344 205.54269531 423.84304688 206.08539063 424.27734375 206.64453125 C425.09912109 207.71767578 425.09912109 207.71767578 425.9375 208.8125 C426.75541016 209.87404297 426.75541016 209.87404297 427.58984375 210.95703125 C431.10871984 216.05501517 430.57793584 222.07279753 430 228 C424.05142518 252.51702333 404.71172604 272.66755592 384 286 C345.34614609 309.43830044 288.33231049 316.37345846 244.75 305.8125 C227.22013053 301.28981754 206.67978083 292.90546361 196.21875 277.3515625 C195 275 195 275 195 273 C195.71820923 272.99635437 196.43641846 272.99270874 197.1763916 272.98895264 C243.77176936 273.08615738 243.77176936 273.08615738 290 268 C292.20402288 267.64849775 294.40844979 267.29951915 296.61328125 266.953125 C305.91716028 265.4459479 314.93408069 263.60338534 324 261 C324.89734629 257.10085474 325.1886822 253.38265702 325.31640625 249.38671875 C325.35830078 248.13955078 325.40019531 246.89238281 325.44335938 245.60742188 C325.50233398 243.66706055 325.50233398 243.66706055 325.5625 241.6875 C325.60568359 240.37458984 325.64886719 239.06167969 325.69335938 237.70898438 C325.79927227 234.47275712 325.90134885 231.23645542 326 228 C325.42354736 227.81969238 324.84709473 227.63938477 324.25317383 227.45361328 C306.9695325 221.89694317 288.66658405 210.52320698 280 194 C280 193.01 280 192.02 280 191 C280.61705811 190.90501221 281.23411621 190.81002441 281.86987305 190.7121582 C295.82921463 188.53846903 309.54023085 185.9100644 323.22607422 182.39550781 C325 182 325 182 327 182 C326.93941406 181.15816162 326.87882812 180.31632324 326.81640625 179.44897461 C326.59079541 176.29758168 326.36741817 173.14604026 326.14550781 169.99438477 C326.04938475 168.63559812 325.95239584 167.27687241 325.85449219 165.91821289 C325.71316369 163.95475624 325.57530401 161.99105091 325.4375 160.02734375 C325.31181641 158.25991821 325.31181641 158.25991821 325.18359375 156.45678711 C324.99809777 152.96418387 324.96876097 149.49681932 325 146 C323.82566406 146.31453125 322.65132813 146.6290625 321.44140625 146.953125 C305.09520235 151.3091471 288.75787406 155.5532669 272 158 C271.08557129 158.13825195 270.17114258 158.27650391 269.22900391 158.41894531 C225.52832898 164.74038172 180.03380949 162.27629479 137 153 C135.48317477 152.68960599 133.96625747 152.37966138 132.44921875 152.0703125 C88.47243497 142.77111989 41.68934662 119.53064065 13.5625 83.375 C13.09368408 82.77308838 12.62486816 82.17117676 12.1418457 81.55102539 C-0.26934113 65.35359013 -12.47378214 44.22566157 -10 23 C-8.72200838 14.22304931 -6.4273359 6.4273359 0 0 Z " fill="#D06F1D" transform="translate(35,193)"/>
<path d="M0 0 C3.90015176 1.30005059 4.10800482 2.60689913 6 6.1875 C22.97413403 36.13143165 51.51461075 55.61573333 82 70 C82.63486328 70.30147949 83.26972656 70.60295898 83.92382812 70.91357422 C130.54131499 92.82379305 182.9798232 98.22125354 233.875 98.1875 C234.99242584 98.1882251 236.10985168 98.1889502 237.26113892 98.18969727 C254.25531035 98.18847986 271.08788836 97.76319256 288 96 C288.35807739 96.7727124 288.35807739 96.7727124 288.72338867 97.56103516 C297.65687624 116.21632289 315.912894 125.07443825 334 133 C334.05823729 137.5416125 334.09367675 142.0831284 334.125 146.625 C334.14175781 147.91019531 334.15851563 149.19539062 334.17578125 150.51953125 C334.18222656 151.76347656 334.18867188 153.00742187 334.1953125 154.2890625 C334.20578613 155.43068848 334.21625977 156.57231445 334.22705078 157.74853516 C333.98515867 161.21253429 333.4485949 163.84183845 332 167 C330.27368164 168.07666016 330.27368164 168.07666016 328.16015625 168.5390625 C327.35811768 168.7249292 326.5560791 168.9107959 325.72973633 169.10229492 C324.84954834 169.2747876 323.96936035 169.44728027 323.0625 169.625 C321.68130981 169.92337769 321.68130981 169.92337769 320.2722168 170.2277832 C308.28192803 172.72049852 296.14111717 174.43523387 284 176 C282.15970215 176.26925293 282.15970215 176.26925293 280.28222656 176.54394531 C264.98148708 178.6482966 249.53701489 178.39583368 234.125 178.375 C233.0269359 178.37486216 233.0269359 178.37486216 231.90668869 178.37472153 C209.05167726 178.37101096 186.59405335 177.73993511 164 174 C162.78618652 173.80744629 161.57237305 173.61489258 160.32177734 173.41650391 C103.77114892 164.2924842 42.90000379 143.47321583 7.48828125 95.5234375 C0.4334922 85.68815038 -5.28712141 75.57544501 -9 64 C-9.24492187 63.27039063 -9.48984375 62.54078125 -9.7421875 61.7890625 C-15.40850904 41.53002247 -7.63719009 18.67257945 0 0 Z " fill="#FEA829" transform="translate(27,288)"/>
<path d="M0 0 C-2.16054365 2.16054365 -4.32094486 4.29746109 -6.5625 6.375 C-13.26200648 13.58985313 -12.95566689 22.16626223 -13.72851562 31.5234375 C-14.80250025 42.63187018 -14.80250025 42.63187018 -19 47 C-25.0979066 51.863762 -32.53197826 54.4694027 -39.6875 57.375 C-64.78994009 67.67123649 -64.78994009 67.67123649 -82.875 87.1875 C-84.81512877 93.76238085 -85.29210557 100.87664099 -82.5625 107.3125 C-76.81693587 117.00939946 -65.88154802 120.79331362 -55.5625 123.5078125 C-48.69630022 125.19426598 -41.84179628 125.96572683 -34.8125 126.625 C-33.53963135 126.75124756 -32.2667627 126.87749512 -30.95532227 127.00756836 C-24.12090193 127.66879559 -17.29516891 128.22243698 -10.4375 128.5625 C9.91566422 129.63692002 24.91668367 136.09363434 39.2578125 150.82421875 C43.52297145 155.5886278 47.20692743 160.8473848 50.9152832 166.0480957 C62.90814563 182.83602431 78.44884384 194.82081772 99 199 C104.38365507 199.69476689 109.7763747 200.14415568 115.1875 200.5625 C135.28319586 202.15485077 150.34091514 207.58387586 167 219 C167 219.33 167 219.66 167 220 C141.34726945 223.40106724 115.84123803 224.43863101 90 224 C89.01870117 223.98598145 88.03740234 223.97196289 87.02636719 223.95751953 C64.23013386 223.54666211 40.72395232 220.68307375 18.50537109 215.57275391 C15.71299582 214.93438786 12.9133965 214.33393798 10.11328125 213.73046875 C-18.4406972 207.40872786 -47.04352035 197.11177118 -71 180 C-72.06992188 179.24460938 -73.13984375 178.48921875 -74.2421875 177.7109375 C-96.49985008 161.54898317 -112.56284607 139.91239495 -119 113 C-119.26151855 112.07417114 -119.26151855 112.07417114 -119.52832031 111.12963867 C-124.01254189 90.88333182 -116.99995604 72.64698729 -106.60546875 55.73046875 C-86.99652847 27.59075082 -34.95288219 -2.18455514 0 0 Z " fill="#FEA728" transform="translate(162,29)"/>
<path d="M0 0 C2.76504158 2.45964893 4.29757329 5.14002377 6.0625 8.375 C29.29240393 48.71144406 72.90079092 69.05307403 116.234375 80.71875 C142.76327918 87.46047405 170.94650241 91.33607647 198.33015442 90.91137695 C201.48888295 90.87271761 204.64696427 90.87783654 207.80587769 90.88635254 C209.37425263 90.87887653 210.94268382 90.85098906 212.51028442 90.80114746 C225.05514654 90.40570482 225.05514654 90.40570482 229.89990234 94.37719727 C232.15798299 97.15230211 234.06111253 99.9980646 236 103 C254.35748575 122.29993241 281.57337176 129.77574059 306.75830078 135.17626953 C312.40483826 136.43316223 318.0713009 137.86642458 323 141 C324.5625 143.75 324.5625 143.75 325 146 C307.47814439 150.69301072 289.97187931 155.37601609 272 158 C271.08557129 158.13825195 270.17114258 158.27650391 269.22900391 158.41894531 C225.52832898 164.74038172 180.03380949 162.27629479 137 153 C135.48317477 152.68960599 133.96625747 152.37966138 132.44921875 152.0703125 C88.47243497 142.77111989 41.68934662 119.53064065 13.5625 83.375 C13.09368408 82.77308838 12.62486816 82.17117676 12.1418457 81.55102539 C-0.26934113 65.35359013 -12.47378214 44.22566157 -10 23 C-8.72200838 14.22304931 -6.4273359 6.4273359 0 0 Z " fill="#FEA829" transform="translate(35,193)"/>
<path d="M0 0 C1.15683933 2.89209832 0.9677579 4.10676892 0.046875 7.15625 C-4.70894923 24.61793298 1.2642861 43.08623569 9.93994141 58.2578125 C12.5454015 62.53983995 15.66097465 66.27937175 19 70 C19.68707031 70.80566406 20.37414062 71.61132812 21.08203125 72.44140625 C67.18639853 125.52373183 144.47669995 142.1087059 211.41796875 147.26318359 C222.1963174 148.01437731 232.94698911 148.24258052 243.75 148.25 C245.09194427 148.25101212 245.09194427 148.25101212 246.46099854 148.25204468 C274.14331878 148.21913274 302.08279436 145.37301052 328.73803711 137.56835938 C331 137 331 137 334 137 C334.05834395 140.87493616 334.09371201 144.74975836 334.125 148.625 C334.14175781 149.71941406 334.15851563 150.81382812 334.17578125 151.94140625 C334.24606096 163.53755842 334.24606096 163.53755842 332 167 C329.13644219 168.43507224 326.19142595 169.01181643 323.0625 169.625 C321.68130981 169.92337769 321.68130981 169.92337769 320.2722168 170.2277832 C308.28192803 172.72049852 296.14111717 174.43523387 284 176 C282.15970215 176.26925293 282.15970215 176.26925293 280.28222656 176.54394531 C264.98148708 178.6482966 249.53701489 178.39583368 234.125 178.375 C233.0269359 178.37486216 233.0269359 178.37486216 231.90668869 178.37472153 C209.05167726 178.37101096 186.59405335 177.73993511 164 174 C162.78618652 173.80744629 161.57237305 173.61489258 160.32177734 173.41650391 C103.77114892 164.2924842 42.90000379 143.47321583 7.48828125 95.5234375 C0.4334922 85.68815038 -5.28712141 75.57544501 -9 64 C-9.24492187 63.27039063 -9.48984375 62.54078125 -9.7421875 61.7890625 C-15.40850904 41.53002247 -7.63719009 18.67257945 0 0 Z " fill="#FBE8C4" transform="translate(27,288)"/>
<path d="M0 0 C15.33100658 7.70253471 32.53299798 21.2850085 40 37 C40.65351899 38.27031212 41.31130789 39.53843385 41.97265625 40.8046875 C42.66938244 42.16140102 43.36599534 43.51817274 44.0625 44.875 C44.5894043 45.87853516 44.5894043 45.87853516 45.12695312 46.90234375 C51.97626916 60.34202248 51.82639528 75.50948631 47.33496094 89.73071289 C41.56416074 106.50234499 32.13817338 120.15161435 20 133 C19.37609375 133.67675781 18.7521875 134.35351562 18.109375 135.05078125 C1.90717777 152.03585776 -20.45756463 164.23493442 -42 173 C-42.66 173 -43.32 173 -44 173 C-40.71806395 160.50561189 -35.59899366 149.62381636 -28.62304688 138.84375 C-21.38924817 127.53472729 -17.83094014 116.49429097 -19 103 C-20.79336438 94.96227048 -24.65627778 89.13449726 -30 83 C-37.28287166 74.45883114 -37.28287166 74.45883114 -37.3125 68.1875 C-37.32925781 67.37667969 -37.34601563 66.56585938 -37.36328125 65.73046875 C-36.36633307 58.23727758 -32.78839738 54.2836504 -27.3125 49.5 C-26.68327637 48.93321533 -26.05405273 48.36643066 -25.40576172 47.7824707 C-21.57983596 44.34761985 -17.69395571 40.98059495 -13.80859375 37.61328125 C-7.08545713 31.6161853 -1.13453779 26.0307368 1 17 C1.31467679 11.20994711 1.30024508 5.66906854 0 0 Z " fill="#FEA828" transform="translate(429,60)"/>
<path d="M0 0 C0.24412921 9.41253728 -0.00825274 18.02475823 -3 27 C-4.051875 26.7525 -5.10375 26.505 -6.1875 26.25 C-13.90444951 25.35080762 -21.27074217 28.79532991 -28.23046875 31.8046875 C-39.75854431 36.74704069 -51.21426723 39.95812555 -63.46850586 42.4777832 C-70.96295582 44.06757503 -77.35997501 46.14223221 -84 50 C-84.41831404 53.28999282 -84.41831404 53.28999282 -84 57 C-80.63416699 60.9988854 -76.80285932 63.49667016 -72.25 65.9375 C-71.00805145 66.63091177 -69.76716579 67.32623064 -68.52734375 68.0234375 C-67.62604736 68.52762207 -67.62604736 68.52762207 -66.70654297 69.04199219 C-64.38389033 70.34586757 -62.08245998 71.66846875 -59.8125 73.0625 C-59.13832031 73.46597656 -58.46414063 73.86945313 -57.76953125 74.28515625 C-53.19572839 78.71760538 -52.51056655 84.60635984 -52.3125 90.6875 C-52.27906494 91.42919434 -52.24562988 92.17088867 -52.21118164 92.93505859 C-51.7492466 104.94536964 -51.91653579 116.98372179 -52 129 C-59.42759913 131.90720093 -66.75761887 134.01202661 -74.5625 135.625 C-76.50272648 136.02704037 -78.44162255 136.43557316 -80.37890625 136.8515625 C-81.2201001 137.02510254 -82.06129395 137.19864258 -82.92797852 137.37744141 C-85.19649231 137.88067322 -85.19649231 137.88067322 -87 140 C-86.86827416 144.7421304 -84.29139523 147.8270226 -81 151 C-78.57242229 152.64006096 -76.02793207 153.89066719 -73.375 155.125 C-72.3240918 155.63256836 -72.3240918 155.63256836 -71.25195312 156.15039062 C-65.63768619 158.81626852 -59.91813298 161.09416057 -54 163 C-52.95470045 170.78073774 -52.78226845 178.46723191 -52.75 186.3125 C-52.7190625 188.17551758 -52.7190625 188.17551758 -52.6875 190.07617188 C-52.65054837 198.88451778 -52.9088676 209.39117065 -58 217 C-60.04223633 217.95898438 -60.04223633 217.95898438 -62.51953125 218.59375 C-63.41881348 218.83222656 -64.3180957 219.07070313 -65.24462891 219.31640625 C-66.6085376 219.65478516 -66.6085376 219.65478516 -68 220 C-69.19568604 220.32291016 -69.19568604 220.32291016 -70.41552734 220.65234375 C-89.52707271 225.77527204 -108.41670502 228.2590239 -128.1875 228.3125 C-130.11988525 228.32083862 -130.11988525 228.32083862 -132.09130859 228.3293457 C-139.93130663 228.26985162 -147.31849522 227.53810822 -155 226 C-155.99169189 225.81252197 -156.98338379 225.62504395 -158.00512695 225.43188477 C-161.02935405 224.85267376 -164.04593592 224.24277981 -167.0625 223.625 C-168.06087891 223.4290625 -169.05925781 223.233125 -170.08789062 223.03125 C-176.99045767 221.61579822 -183.44592315 219.582324 -190 217 C-190 216.67 -190 216.34 -190 216 C-189.05423096 215.99453156 -189.05423096 215.99453156 -188.08935547 215.98895264 C-144.8744047 215.81086855 -144.8744047 215.81086855 -102 211 C-99.7865846 210.65024165 -97.5730449 210.30126893 -95.359375 209.953125 C-86.06601953 208.44198124 -77.05660422 206.6007104 -68 204 C-67.10265371 200.10085474 -66.8113178 196.38265702 -66.68359375 192.38671875 C-66.64169922 191.13955078 -66.59980469 189.89238281 -66.55664062 188.60742188 C-66.51732422 187.31384766 -66.47800781 186.02027344 -66.4375 184.6875 C-66.37272461 182.71813477 -66.37272461 182.71813477 -66.30664062 180.70898438 C-66.20072773 177.47275712 -66.09865115 174.23645542 -66 171 C-66.57645264 170.81969238 -67.15290527 170.63938477 -67.74682617 170.45361328 C-85.0304675 164.89694317 -103.33341595 153.52320698 -112 137 C-112 136.01 -112 135.02 -112 134 C-111.38294189 133.90501221 -110.76588379 133.81002441 -110.13012695 133.7121582 C-96.17078537 131.53846903 -82.45976915 128.9100644 -68.77392578 125.39550781 C-67 125 -67 125 -65 125 C-65.33044116 119.65964444 -65.68504748 114.32164877 -66.06201172 108.984375 C-66.18681435 107.169064 -66.30503578 105.35328794 -66.41650391 103.53710938 C-66.57801944 100.92427396 -66.76324645 98.31403355 -66.953125 95.703125 C-66.9981012 94.89256653 -67.04307739 94.08200806 -67.0894165 93.24688721 C-67.3793406 89.55741502 -67.58590586 87.54970901 -69.85473633 84.5378418 C-72.82679736 82.40730664 -75.95158554 81.4925883 -79.4375 80.5625 C-80.54436157 80.25010376 -80.54436157 80.25010376 -81.67358398 79.93139648 C-86.71319972 78.53705917 -91.78930567 77.33737854 -96.88647461 76.17431641 C-122.09002542 70.41205947 -146.79680093 60.13460749 -163 39 C-163.68497824 37.67598073 -164.35485956 36.34388096 -165 35 C-164.45416763 34.96907761 -163.90833527 34.93815521 -163.34596252 34.90629578 C-124.40342523 32.68960671 -86.65997489 30.01037452 -49 19 C-48.25411621 18.78545166 -47.50823242 18.57090332 -46.73974609 18.34985352 C-40.68613997 16.57954832 -34.76977971 14.55368357 -28.875 12.3125 C-27.97354248 11.97089844 -27.07208496 11.62929688 -26.14331055 11.27734375 C-19.49102172 8.70173356 -13.10791975 5.76329572 -6.79833984 2.4387207 C-2.16888313 0 -2.16888313 0 0 0 Z " fill="#AE5813" transform="translate(427,250)"/>
<path d="M0 0 C7.02847102 5.98167746 11.72381302 13.02868382 16.25 21 C17.37581418 22.94765036 18.50343578 24.89425702 19.6328125 26.83984375 C20.18614258 27.79487793 20.73947266 28.74991211 21.30957031 29.73388672 C24.0494251 34.38933884 26.93983291 38.94841976 29.86645508 43.48828125 C31.94274754 46.74590489 33.55964907 49.89877263 34.9375 53.5 C15.27920266 58.35644927 -4.41623346 62.99515838 -24.19140625 67.35327148 C-33.88758646 69.49959494 -43.49132154 71.84699288 -53.0625 74.5 C-53.08231934 75.09014893 -53.10213867 75.68029785 -53.12255859 76.28833008 C-53.21784659 78.96350096 -53.32750939 81.63789498 -53.4375 84.3125 C-53.48390625 85.7056543 -53.48390625 85.7056543 -53.53125 87.12695312 C-53.56992188 88.01962891 -53.60859375 88.91230469 -53.6484375 89.83203125 C-53.6798584 90.65421143 -53.7112793 91.4763916 -53.74365234 92.32348633 C-54.0625 94.5 -54.0625 94.5 -56.0625 97.5 C-59.60432499 97.25552004 -60.86597196 96.70115223 -63.38671875 94.12109375 C-64.55654297 92.54521484 -64.55654297 92.54521484 -65.75 90.9375 C-66.17716309 90.36249756 -66.60432617 89.78749512 -67.04443359 89.19506836 C-72.13025839 82.22880962 -76.64787944 74.90355103 -81.0625 67.5 C-81.41554199 66.91105957 -81.76858398 66.32211914 -82.13232422 65.71533203 C-84.53073997 61.69118305 -86.82280903 57.61390935 -89.0625 53.5 C-89.46452637 52.7692627 -89.86655273 52.03852539 -90.28076172 51.28564453 C-91.56422996 48.93106638 -92.81678086 46.56223638 -94.0625 44.1875 C-94.46090088 43.45869629 -94.85930176 42.72989258 -95.26977539 41.97900391 C-98.45560575 35.76779587 -99.21440082 30.31758281 -97.1796875 23.57421875 C-93.81069205 17.10108597 -91.13806954 13.85852318 -84.0625 11.5 C-81.30910095 11.23204132 -78.56741247 11.00699635 -75.80859375 10.81640625 C-74.13215255 10.6921775 -72.45572055 10.56782445 -70.77929688 10.44335938 C-68.14883244 10.25259025 -65.51824975 10.06379101 -62.88745117 9.87768555 C-47.6783699 8.79306702 -34.63121159 6.23536116 -20.1640625 1.24609375 C-6.64508628 -3.25473614 -6.64508628 -3.25473614 0 0 Z " fill="#F9DD61" transform="translate(289.0625,45.5)"/>
<path d="M0 0 C9.69490175 8.30569327 13.0111544 24.93608363 14 37 C15.11386833 54.78708497 9.42713835 69.95403696 1.0234375 85.21484375 C-1.34231765 89.45864455 -1.34231765 89.45864455 -3 94 C-2.26650924 95.93331861 -2.26650924 95.93331861 -0.8125 97.625 C7.62033358 109.98702852 6.93123202 126.79959913 4.52514648 140.99536133 C0.1129731 163.91305138 -14.30380865 184.00402086 -31.75390625 199.03125 C-33.69688053 200.73430919 -35.43403993 202.48322629 -37.1875 204.375 C-46.82626462 214.12663072 -59.19112353 221.22686281 -71 228 C-71.93585938 228.55042969 -72.87171875 229.10085938 -73.8359375 229.66796875 C-79.6039916 233 -79.6039916 233 -83 233 C-83.94242818 223.96278689 -84.11157151 215.07448253 -84 206 C-82.83726562 205.40574219 -81.67453125 204.81148437 -80.4765625 204.19921875 C-64.74505509 196.08662484 -49.30594637 187.79196849 -36 176 C-35.175 175.31808594 -34.35 174.63617188 -33.5 173.93359375 C-17.86902537 160.67168872 -6.50818661 142.62557337 -4 122 C-3.86160484 118.31142012 -3.86038306 114.62827767 -3.875 110.9375 C-3.87113281 109.95716797 -3.86726563 108.97683594 -3.86328125 107.96679688 C-3.86457031 107.01740234 -3.86585938 106.06800781 -3.8671875 105.08984375 C-3.86887939 103.80388306 -3.86887939 103.80388306 -3.87060547 102.49194336 C-4.00464742 99.9104978 -4.4323896 97.51873591 -5 95 C-11.23627088 101.03510085 -16.94439692 107.57947944 -22.5625 114.1875 C-37.28884403 130.94621277 -63.8584804 150.97743459 -86 156 C-86.10001808 151.91079921 -86.17200015 147.82208689 -86.21972656 143.73193359 C-86.23965342 142.34508844 -86.2668056 140.95832518 -86.30175781 139.57177734 C-86.71973147 122.54549731 -86.71973147 122.54549731 -82 116 C-79.14889191 113.62956041 -76.10097119 112.11791464 -72.75 110.5625 C-70.94051845 109.64618629 -69.13456237 108.7228805 -67.33203125 107.79296875 C-66.43307129 107.33325684 -65.53411133 106.87354492 -64.60791016 106.39990234 C-53.93063869 100.66844058 -44.11260122 92.92634544 -35 85 C-34.02546875 84.15953125 -33.0509375 83.3190625 -32.046875 82.453125 C-15.91771902 68.27791883 1.6853248 48.13321941 3.21875 25.81640625 C3.40766545 18.62974776 2.67297383 12.325591 0.65625 5.42578125 C0 3 0 3 0 0 Z " fill="#FBE8C3" transform="translate(482,206)"/>
<path d="M0 0 C5.97960929 0.11724724 9.79948093 1.93163209 14 6 C16.57776745 9.17781783 18.78053615 12.56543574 21 16 C27.16726761 25.47846078 33.61710862 34.52138577 40.68164062 43.35205078 C56.66832918 63.33541147 56.66832918 63.33541147 57.1484375 71.53515625 C54.82363584 76.52478159 49.18555673 78.68984468 44.21484375 80.51953125 C42.79459708 80.96842277 41.3681903 81.39809747 39.9375 81.8125 C39.11588379 82.05548828 38.29426758 82.29847656 37.44775391 82.54882812 C25.53802523 85.89498416 13.33405663 88.11220205 1.21060181 90.53070068 C-8.97700558 92.56440819 -19.10137356 94.78281486 -29.20947266 97.18554688 C-37.91049708 99.25084498 -45.98388449 100.25554606 -54.9375 100.375 C-56.52594727 100.43107422 -56.52594727 100.43107422 -58.14648438 100.48828125 C-65.1766692 100.56722281 -68.79893318 99.82458209 -74 95 C-78.58013313 89.81865607 -81.28379698 82.61964024 -83 76 C-82.505 75.01 -82.505 75.01 -82 74 C-80.53998252 75.76944505 -79.08204407 77.54060571 -77.625 79.3125 C-76.40683594 80.79169922 -76.40683594 80.79169922 -75.1640625 82.30078125 C-73 85 -73 85 -71 88 C-69.68 88 -68.36 88 -67 88 C-65.82530556 85.65061112 -65.79965111 84.04926795 -65.68359375 81.4296875 C-65.64169922 80.53378906 -65.59980469 79.63789063 -65.55664062 78.71484375 C-65.51732422 77.77769531 -65.47800781 76.84054688 -65.4375 75.875 C-65.39431641 74.93011719 -65.35113281 73.98523438 -65.30664062 73.01171875 C-65.20040928 70.67462908 -65.09836824 68.3374317 -65 66 C-60.21037922 63.88780699 -55.2389535 62.62679516 -50.1875 61.3125 C-49.19194092 61.05267334 -48.19638184 60.79284668 -47.1706543 60.52514648 C-37.92591248 58.15753063 -28.61390242 56.12646631 -19.28427124 54.12805176 C-5.10126207 51.0865376 8.95313532 47.61979456 23 44 C19.27793323 37.00455622 15.35628095 30.22094147 11.0625 23.5625 C6.53141854 16.46807677 2.1520711 9.32460429 -2 2 C-1.34 1.34 -0.68 0.68 0 0 Z " fill="#AD5913" transform="translate(300,54)"/>
<path d="M0 0 C1.9375 2.90625 1.9375 2.90625 3.875 5.8125 C18.19320455 22.29271265 51.3760342 21.50512735 71 23 C73.51008307 23.16656415 76.02050472 23.32811 78.53125 23.484375 C79.73563721 23.56212158 80.94002441 23.63986816 82.1809082 23.7199707 C84.43889489 23.86004354 86.69791085 23.98479583 88.95776367 24.09057617 C100.66052557 24.79191678 109.21167909 28.31415663 118 36 C118.73992187 36.6084375 119.47984375 37.216875 120.2421875 37.84375 C125.29335119 42.10840031 129.43725452 46.7637014 133.54296875 51.93359375 C137.78297132 57.22517088 142.2421138 62.32967223 146.67529297 67.45947266 C147.79414285 68.76060476 148.90047 70.07248961 150.00390625 71.38671875 C157.86797268 80.67398049 165.6702005 86.39176549 177 91 C177.85335937 91.36222656 178.70671875 91.72445312 179.5859375 92.09765625 C188.66834865 95.49253809 198.71279026 95.33089578 208.28662109 95.48266602 C220.58559262 95.81212167 230.91503476 98.90294168 241.75 104.625 C243.2959082 105.41753174 243.2959082 105.41753174 244.87304688 106.22607422 C249.62546067 108.67243017 254.34499728 111.17678554 259.046875 113.71875 C259.80645508 114.12786621 260.56603516 114.53698242 261.34863281 114.95849609 C262.72844237 115.70664976 264.10332091 116.46401316 265.47167969 117.23291016 C272.39199843 121.02157709 280.07719523 123.25952281 288 122 C297.18275284 118.86481402 304.27641299 110.87171474 308.5625 102.375 C309.036875 101.26125 309.51125 100.1475 310 99 C311.39550859 103.18652577 309.67956083 105.74844258 307.9375 109.5625 C307.61458984 110.27905762 307.29167969 110.99561523 306.95898438 111.73388672 C298.46130382 130.26934809 298.46130382 130.26934809 289 135 C286.73499695 135.20511024 284.46095623 135.31412476 282.1875 135.375 C280.96417969 135.42398438 279.74085938 135.47296875 278.48046875 135.5234375 C266.72526417 134.80289081 256.0929408 127.42246946 246.3125 121.4375 C232.05831282 112.74889894 219.97781276 107.67772881 203.171875 106.61328125 C180.40908594 105.15105198 159.54595276 100.36419685 143.61328125 82.43994141 C140.25151178 78.413116 137.12033362 74.21478751 134 70 C120.94883091 52.50919414 107.73099149 39.01468398 85.3425293 35.44848633 C79.70405141 34.69193941 74.05104236 34.34643065 68.375 34 C16.88632837 30.527028 16.88632837 30.527028 4 16 C0.29386282 10.71023151 -0.4552466 6.37345235 0 0 Z " fill="#AC590F" transform="translate(77,124)"/>
<path d="M0 0 C0.66 0 1.32 0 2 0 C8.0361186 9.0541779 9.19436992 23.49693253 8 34 C1.98236038 64.08819812 -24.58592998 88.48774255 -49 105 C-58.00961547 110.87086914 -67.19741179 116.54203903 -77 121 C-75.70871067 117.5920961 -74.22815595 114.48509945 -72.390625 111.33984375 C-71.88595703 110.46972656 -71.38128906 109.59960938 -70.86132812 108.703125 C-70.0637207 107.33414063 -70.0637207 107.33414063 -69.25 105.9375 C-57.43967661 86.50558085 -57.43967661 86.50558085 -52.875 64.63671875 C-52.65429651 50.04932779 -52.65429651 50.04932779 -49.52978516 46.17871094 C-45.75239436 43.07220417 -41.44093609 41.06230575 -37.02392578 39.02246094 C-32.11753596 36.54381672 -28.11928984 32.58580804 -24 29 C-23.29617188 28.42894531 -22.59234375 27.85789063 -21.8671875 27.26953125 C-13.34681802 20.23604978 -7.00601873 11.47825861 -1.41015625 2.01953125 C-0.94480469 1.35308594 -0.47945313 0.68664062 0 0 Z " fill="#FEA829" transform="translate(478,201)"/>
<path d="M0 0 C0.66 0 1.32 0 2 0 C4.59585536 4.93212518 4.38427289 9.87673256 4.375 15.3125 C4.37338867 16.28928711 4.37177734 17.26607422 4.37011719 18.27246094 C4.22417084 27.00921012 2.72433913 34.7320579 0 43 C-0.41572266 44.35931641 -0.41572266 44.35931641 -0.83984375 45.74609375 C-12.09556506 78.1646459 -47.56814349 96.69801687 -76 111 C-76 108 -76 108 -73.9453125 105.79296875 C-73.01460938 104.93316406 -72.08390625 104.07335937 -71.125 103.1875 C-57.18112114 89.75174361 -48.41564711 73.1897265 -45 54 C-45.04776085 51.81054211 -45.14783923 49.6212797 -45.3125 47.4375 C-45.48263628 42.52972274 -45.48263628 42.52972274 -43.3984375 40.2421875 C-41.1875 38.8125 -41.1875 38.8125 -38.69140625 37.47265625 C-33.62035489 34.69793004 -29.3813815 30.73990852 -25 27 C-24.06671875 26.20335937 -23.1334375 25.40671875 -22.171875 24.5859375 C-15.70978161 18.90001734 -10.27802245 12.78602887 -5 6 C-3.37697156 3.94046024 -1.7465209 1.9582204 0 0 Z " fill="#FEA829" transform="translate(475,301)"/>
<path d="M0 0 C1.56424629 3.12849259 1.18446398 6.44430084 1.1875 9.875 C1.19974609 10.59558594 1.21199219 11.31617187 1.22460938 12.05859375 C1.24503333 19.45206535 1.24503333 19.45206535 -1 22 C-3.63475801 23.18548951 -6.06823569 24.09592949 -8.8125 24.9375 C-9.60567627 25.19128418 -10.39885254 25.44506836 -11.21606445 25.70654297 C-19.06558296 28.1507867 -27.04053875 30.02388311 -35.05078125 31.85546875 C-41.01098489 33.21835128 -46.90293972 34.80822873 -52.80322266 36.40820312 C-57.55121632 37.68728032 -62.30672664 38.93772354 -67.0625 40.1875 C-68.54532471 40.58086548 -68.54532471 40.58086548 -70.05810547 40.98217773 C-77.52229262 42.94055247 -84.28022161 44.13309963 -92 44 C-91.67 43.01 -91.34 42.02 -91 41 C-90.8535286 39.44733347 -90.75305926 37.89004338 -90.68359375 36.33203125 C-90.64169922 35.43935547 -90.59980469 34.54667969 -90.55664062 33.62695312 C-90.51732422 32.69818359 -90.47800781 31.76941406 -90.4375 30.8125 C-90.37272461 29.40194336 -90.37272461 29.40194336 -90.30664062 27.96289062 C-90.20061335 25.64207146 -90.09854971 23.32114675 -90 21 C-85.21037532 18.88780526 -80.23895366 17.626813 -75.1875 16.3125 C-73.69851196 15.92384766 -73.69851196 15.92384766 -72.17944336 15.52734375 C-62.16260147 12.96185943 -52.06753157 10.78448628 -41.95825195 8.62207031 C-32.3898474 6.56777032 -22.89037611 4.30180851 -13.43383789 1.77734375 C-8.84335634 0.5787889 -4.79293903 -0.3264294 0 0 Z " fill="#F4AC02" transform="translate(325,99)"/>
<path d="M0 0 C49.86663512 -0.86262975 102.58465769 4.71681233 149 24 C149 24.33 149 24.66 149 25 C135.44566299 25.11763648 121.94117801 24.84538316 108.39941406 24.25537109 C105.37070717 24.12481495 102.34169109 24.0054435 99.3125 23.88671875 C74.69989831 22.87168235 52.76930365 19.38787407 29.60546875 10.9453125 C25.14430243 9.32671842 20.66574892 7.7580648 16.1875 6.1875 C15.36983154 5.89770264 14.55216309 5.60790527 13.7097168 5.30932617 C9.17423244 3.71252337 4.63808297 2.26943526 0 1 C0 0.67 0 0.34 0 0 Z " fill="#FEA727" transform="translate(248,20)"/>
<path d="M0 0 C1.796875 0.06640625 1.796875 0.06640625 4 1 C5.59757907 2.95362867 6.91384511 4.8133129 8.25 6.9375 C8.66620605 7.57993652 9.08241211 8.22237305 9.51123047 8.88427734 C15.8381495 18.73390958 21.91625991 28.74894295 28.00488281 38.74707031 C29.40293802 41.02652303 30.81144198 43.29578187 32.23730469 45.55761719 C32.60395233 46.14276093 32.97059998 46.72790466 33.34835815 47.33078003 C34.37168494 48.96221701 35.40028582 50.59034233 36.42919922 52.21826172 C39.37973447 57.44337808 39.18284114 62.19699202 39.1875 68.0625 C39.19974609 68.87783203 39.21199219 69.69316406 39.22460938 70.53320312 C39.22654297 71.31759766 39.22847656 72.10199219 39.23046875 72.91015625 C39.23457764 73.62308838 39.23868652 74.33602051 39.24291992 75.07055664 C39 77 39 77 37 80 C33.45817501 79.75552004 32.19652804 79.20115223 29.67578125 76.62109375 C28.50595703 75.04521484 28.50595703 75.04521484 27.3125 73.4375 C26.88533691 72.86249756 26.45817383 72.28749512 26.01806641 71.69506836 C20.93224161 64.72880962 16.41462056 57.40355103 12 50 C11.64695801 49.41105957 11.29391602 48.82211914 10.93017578 48.21533203 C8.53176003 44.19118305 6.23969097 40.11390935 4 36 C3.59797363 35.2692627 3.19594727 34.53852539 2.78173828 33.78564453 C1.49827004 31.43106638 0.24571914 29.06223638 -1 26.6875 C-1.39840088 25.95869629 -1.79680176 25.22989258 -2.20727539 24.47900391 C-4.89050706 19.24768013 -5.77210746 14.86296555 -5 9 C-4.16015625 6.40625 -4.16015625 6.40625 -3.0625 4.5 C-2.52302734 3.52546875 -2.52302734 3.52546875 -1.97265625 2.53125 C-1 1 -1 1 0 0 Z " fill="#FCFDF8" transform="translate(196,63)"/>
<path d="M0 0 C3.2626927 1.86162174 6.23303997 4.08020932 9.25 6.3125 C15.94727113 11.06265957 21.93588285 15.03423183 30 17 C31.335985 17.33314291 32.67191832 17.66649311 34.0078125 18 C36.11655807 18.52569227 38.2241927 19.04262741 40.34448242 19.51977539 C44.74191811 20.53777654 49.70569029 21.70569029 53 25 C53.4375 27.75 53.4375 27.75 53 31 C47.8020201 36.3161158 44.08217352 37.11738278 36.85742188 37.29248047 C21.63155689 37.42178048 9.34164138 33.25610708 -1.875 22.625 C-6.6780798 17.54988736 -10.09892538 12.82361126 -10.4375 5.6875 C-10 2 -10 2 -8.9375 -0.0625 C-5.85707232 -1.55302952 -3.15203142 -0.98936178 0 0 Z " fill="#FCFCF8" transform="translate(241,172)"/>
<path d="M0 0 C3.79597518 1.45377773 6.70664276 3.51719374 9.875 6 C17.03521962 11.44069221 24.74469469 12.63753243 33.4140625 14.05859375 C37.3252028 15.08537459 39.84669408 16.49071269 43 19 C43.6875 21.4375 43.6875 21.4375 43 24 C39.5206823 28.53365639 36.45437416 29.71594942 31 31 C17.3243248 32.49160637 4.63210891 29.26481892 -7 22 C-10.20664486 19.4208786 -12.59366415 16.8083496 -13.51171875 12.72265625 C-13.70830701 8.64853408 -13.3171187 6.50738992 -11.125 3 C-7.47535397 -0.43496097 -4.95671112 -0.33044741 0 0 Z " fill="#FCFBF7" transform="translate(116,105)"/>
<path d="M0 0 C3.80354946 5.70532419 3.5816387 11.33608237 3 18 C1.19339622 24.98698571 -3.05621196 29.9296977 -8 35 C-8.71671875 35.74378906 -9.4334375 36.48757812 -10.171875 37.25390625 C-15.47697291 42.65961809 -20.97085408 47.85904256 -26.94921875 52.51953125 C-30.9986307 55.73698854 -33.99822351 58.74994913 -35 64 C-35.2239429 68.34652815 -35.17651244 72.652564 -35 77 C-41.24755705 72.64123927 -44.84846302 67.16892917 -46.51953125 59.66796875 C-47.00855059 53.17424684 -44.10634133 48.80546402 -40 44 C-35.07540553 38.60011622 -29.63160685 34.34588513 -23.6875 30.125 C-9.29427177 20.92509286 -9.29427177 20.92509286 -0.48828125 7.421875 C-0.40126953 6.09929687 -0.40126953 6.09929687 -0.3125 4.75 C-0.24675781 3.85796875 -0.18101562 2.9659375 -0.11328125 2.046875 C-0.07589844 1.37140625 -0.03851563 0.6959375 0 0 Z " fill="#AC590F" transform="translate(428,59)"/>
<path d="M0 0 C0.9069988 9.97698681 -3.85139992 15.93018372 -10 23.4375 C-19.72251776 34.83215876 -31.8649483 42.10049705 -45 49 C-46.56814453 49.82757813 -46.56814453 49.82757813 -48.16796875 50.671875 C-54.6465941 54 -54.6465941 54 -57 54 C-57.58972367 48.84974659 -57.8441893 44.1354849 -57 39 C-54.27586163 35.77889044 -50.83584378 34.60873549 -47 33 C-44.73331674 31.78051364 -42.48400132 30.52837322 -40.25 29.25 C-39.65960938 28.91468262 -39.06921875 28.57936523 -38.4609375 28.23388672 C-26.00036846 21.06704542 -14.63159654 12.24212426 -4.8515625 1.6796875 C-3 0 -3 0 0 0 Z " fill="#AD5913" transform="translate(456,401)"/>
<path d="M0 0 C1.16789063 0.00644531 2.33578125 0.01289063 3.5390625 0.01953125 C6.27657739 0.13940206 8.86920977 0.34608745 11.57641602 0.68261719 C16.05534455 1.19219845 20.48376708 1.36904649 24.98828125 1.43359375 C26.58138671 1.46648334 28.17448554 1.49969567 29.76757812 1.53320312 C32.24060217 1.58081346 34.71359035 1.62541033 37.18676758 1.66430664 C39.60001864 1.7039928 42.01279359 1.75547891 44.42578125 1.80859375 C45.16435867 1.8170079 45.9029361 1.82542206 46.66389465 1.83409119 C50.37509237 1.92342027 53.21837925 2.13726021 56.375 4.1875 C56.375 6.875 56.375 6.875 55.375 10.1875 C47.30795548 17.62492153 36.38252579 16.36981419 26.125 16.375 C24.86558594 16.38724609 23.60617188 16.39949219 22.30859375 16.41210938 C11.29810999 16.42925966 1.32207351 16.18370786 -7.625 9.1875 C-9.625 7.1875 -9.625 7.1875 -9.9375 4.6875 C-9.834375 3.8625 -9.73125 3.0375 -9.625 2.1875 C-6.00220794 -0.2276947 -4.30132752 -0.05154096 0 0 Z " fill="#FCE7C2" transform="translate(220.625,326.8125)"/>
<path d="M0 0 C0.20852314 6.40629424 0.1583195 11.92972642 -2 18 C-2.66 18 -3.32 18 -4 18 C-4.33 17.34 -4.66 16.68 -5 16 C-11.33020154 16.41353075 -16.25262489 19.57051721 -21.6875 22.5625 C-23.56336161 23.59021237 -25.44214581 24.6126135 -27.32421875 25.62890625 C-28.15010498 26.08338135 -28.97599121 26.53785645 -29.8269043 27.00610352 C-32 28 -32 28 -35 28 C-35.10836453 26.56416999 -35.18576167 25.1259798 -35.25 23.6875 C-35.29640625 22.88699219 -35.3428125 22.08648437 -35.390625 21.26171875 C-35 19 -35 19 -33.44921875 17.4375 C-30.23597366 15.55157625 -26.91989758 13.9206049 -23.5625 12.3125 C-16.92122857 9.07806503 -10.68131475 5.47181597 -4.4765625 1.46875 C-2 0 -2 0 0 0 Z " fill="#AD5A11" transform="translate(431,344)"/>
<path d="M0 0 C0.66 0.33 1.32 0.66 2 1 C1.113125 1.61875 0.22625 2.2375 -0.6875 2.875 C-6.03382697 7.30915744 -9.05377665 14.20439596 -10 21 C-10.22893385 24.98410437 -10.34329396 28.97336057 -10.4296875 32.96289062 C-10.6206615 37.99585129 -11.12926128 41.69066638 -14 46 C-16.12109375 47.86328125 -16.12109375 47.86328125 -18.4375 49.3125 C-19.58025391 50.04919922 -19.58025391 50.04919922 -20.74609375 50.80078125 C-22.87178236 51.93178022 -24.67168442 52.46768254 -27 53 C-26.48360962 52.35780518 -26.48360962 52.35780518 -25.95678711 51.70263672 C-20.83024116 44.58462132 -20.88363305 37.24545175 -20.34960938 28.73046875 C-19.57260209 19.54570674 -16.99829476 12.81655409 -10.25 6.375 C-8 5 -8 5 -6 5 C-6 4.34 -6 3.68 -6 3 C-4.03533587 1.93224776 -2.03144641 0.93446535 0 0 Z " fill="#AD590F" transform="translate(168,25)"/>
<path d="M0 0 C4.98681082 1.33025308 9.63752988 2.92523092 13 7 C13.4375 9.5 13.4375 9.5 13 12 C11.25918907 14.19493552 9.84359369 14.87457772 7.08203125 15.28515625 C-1.00427998 15.61433352 -9.94558606 13.5764339 -16 8 C-16.5625 4.875 -16.5625 4.875 -16 2 C-11.09161589 -1.27225608 -5.73672315 -0.54046313 0 0 Z " fill="#FCE6BF" transform="translate(154,312)"/>
<path d="M0 0 C5.46243162 0.1212289 9.14201491 0.89418655 13.25390625 4.70703125 C15.2679171 6.87469961 16.72580884 8.46580945 16.8125 11.5 C15.37402724 13.95386529 14.28808841 14.976664 11.75 16.3125 C5.2996889 17.34454978 0.04283509 14.82871912 -5.25 11.3125 C-7.05859375 9.3046875 -7.05859375 9.3046875 -8.25 7.3125 C-7.82619797 1.3792716 -5.69842924 0.02335422 0 0 Z " fill="#FBF9F2" transform="translate(177.25,128.6875)"/>
<path d="M0 0 C6.20102842 1.05300483 11.90648036 6.42618348 15.9375 11.0625 C15.75 13.1875 15.75 13.1875 14.9375 15.0625 C11.70989609 16.67630195 9.53170831 16.46185648 5.9375 16.0625 C1.42244222 13.73119566 -2.22957046 11.31189431 -5.0625 7.0625 C-5.3125 4.5 -5.3125 4.5 -5.0625 2.0625 C-3.0625 0.0625 -3.0625 0.0625 0 0 Z " fill="#FCE7C0" transform="translate(76.0625,359.9375)"/>
<path d="M0 0 C0.66 0.33 1.32 0.66 2 1 C1.60167969 1.47308594 1.20335937 1.94617188 0.79296875 2.43359375 C-3.15710359 7.36397602 -5.39036476 11.90032961 -7 18 C-9 15 -9 15 -8.5625 12.375 C-6.39369581 7.69038294 -3.28602609 3.9537747 0 0 Z " fill="#FDDEAE" transform="translate(34,192)"/>
<path d="M0 0 C2.29633824 3.44450737 2.54016485 5.93812283 3 10 C2.01 9.67 1.02 9.34 0 9 C0 6.03 0 3.06 0 0 Z " fill="#BC6615" transform="translate(428,59)"/>
</svg>
